<svg id="svg" version="1.1" xmlns="http://www.w3.org/2000/svg" viewBox="0 0 382 278" style="display: block;"><path d="M0 0 C126.06 0 252.12 0 382 0 C382 91.74 382 183.48 382 278 C255.94 278 129.88 278 0 278 C0 186.26 0 94.52 0 0 Z " transform="translate(0,0)" style="fill: #FEFEFE;"/><path d="M0 0 C1.11503906 0.40992188 2.23007813 0.81984375 3.37890625 1.2421875 C12.46389269 4.65157215 20.7130027 8.96906482 29 14 C29 14.66 29 15.32 29 16 C29.69480469 16.22429688 30.38960937 16.44859375 31.10546875 16.6796875 C34.66586655 18.3037286 37.390804 20.57647879 40.3125 23.125 C40.88645508 23.6207251 41.46041016 24.1164502 42.05175781 24.62719727 C68.6371314 47.7789388 84.05923059 78.95741229 87 114 C89.06472529 146.4431182 81.13112477 178.10384181 61 204 C60.41089844 204.79019531 59.82179688 205.58039063 59.21484375 206.39453125 C46.39771341 223.10680593 30.84152877 235.41661433 11.75292969 244.17724609 C10.25314315 244.8811849 8.78293565 245.6475634 7.3203125 246.42578125 C-17.94765131 259.46340475 -51.37014846 258.6173774 -78.00390625 250.90234375 C-96.82281648 244.58655477 -113.29267962 234.16501742 -128 221 C-128.71929687 220.36578125 -129.43859375 219.7315625 -130.1796875 219.078125 C-143.84366921 206.26459858 -153.89596469 189.34050714 -160.30029297 171.90136719 C-160.97579305 170.0657794 -161.67689966 168.23967736 -162.37890625 166.4140625 C-171.33577599 141.76261803 -173.13459938 109.94172884 -162.95703125 85.35546875 C-161.99498476 82.98765637 -161.33584753 80.65758474 -160.6875 78.1875 C-152.49631309 50.29318781 -129.02563649 24.35909633 -104.19140625 9.95068359 C-100.20979049 7.78671463 -96.12381818 5.87446281 -92 4 C-91.03835937 3.53851563 -90.07671875 3.07703125 -89.0859375 2.6015625 C-80.42468018 -1.33537265 -71.31038595 -3.25629135 -62 -5 C-60.59077271 -5.26586914 -60.59077271 -5.26586914 -59.15307617 -5.53710938 C-40.12766652 -8.33015442 -17.97134388 -7.11677179 0 0 Z " transform="translate(235,14)" style="fill: #85D0A7;"/><path d="M0 0 C2.75596242 1.08046254 5.20177737 1.5529219 8.125 1.953125 C12.75329176 2.75614092 14.17781339 4.27038963 16.8828125 7.96875 C19.36262168 10.77020807 22.30491308 12.73557411 25.375 14.828125 C41.86141127 26.24145995 55.73164874 41.04142249 64.75 59.078125 C66.1150393 68.8753058 63.11466445 75.20677534 57.35107422 82.95996094 C39.693834 106.04460864 18.30376021 123.3799265 -9.25 133.078125 C-9.95431152 133.33070068 -10.65862305 133.58327637 -11.38427734 133.84350586 C-39.9492274 143.80150495 -71.93667937 140.68299453 -98.98046875 127.88671875 C-107.8983122 123.4792253 -116.01240092 118.47162854 -123.73657227 112.18896484 C-127.05184206 109.52794781 -130.07078153 107.63254592 -134.02734375 106.03515625 C-137.9123418 104.41006983 -139.5010637 103.13165752 -141.1875 99.140625 C-143.45289304 94.40101777 -146.04715865 90.52435499 -149.3125 86.453125 C-153.19132391 81.57976776 -156.49751553 76.6727097 -159.25 71.078125 C-159.58 70.418125 -159.91 69.758125 -160.25 69.078125 C-161.50303761 57.80078655 -155.31495305 49.89406242 -148.61865234 41.27319336 C-136.44606685 26.2176271 -122.40300217 14.60256958 -105.6875 5.015625 C-105.02041016 4.632854 -104.35332031 4.25008301 -103.66601562 3.85571289 C-100.2232213 1.9500054 -97.17134241 0.56735198 -93.25 0.078125 C-93.25 -2.561875 -93.25 -5.201875 -93.25 -7.921875 C-92.45827393 -7.94693115 -91.66654785 -7.9719873 -90.85083008 -7.99780273 C-87.25456637 -8.11403229 -83.6585472 -8.23663676 -80.0625 -8.359375 C-78.81662109 -8.39869141 -77.57074219 -8.43800781 -76.28710938 -8.47851562 C-74.4840332 -8.54135742 -74.4840332 -8.54135742 -72.64453125 -8.60546875 C-70.98707886 -8.66045532 -70.98707886 -8.66045532 -69.29614258 -8.71655273 C-45.19227969 -10.34125007 -22.58296054 -10.18687894 0 0 Z " transform="translate(241.25,77.921875)" style="fill: #349A67;"/><path d="M0 0 C8.93836567 -0.48149317 15.54016468 -0.22687106 23.375 4.1875 C24.99595089 5.02352286 26.62103816 5.85157058 28.25 6.671875 C29.04535156 7.07341797 29.84070313 7.47496094 30.66015625 7.88867188 C54.97717912 19.43824284 87.04605582 19.3012991 112.26171875 10.62109375 C114.44881963 9.77656965 116.62245707 8.89477444 118.76953125 7.953125 C121 7 121 7 123 7 C123 21.52 123 36.04 123 51 C90.73445094 62.88730755 60.16583179 65.61634639 28.25 51.5625 C26.49245542 50.72396691 24.74226852 49.86982821 23 49 C22.10925781 48.56042969 21.21851563 48.12085938 20.30078125 47.66796875 C17.47174434 46.20300384 14.7480746 44.61167964 12 43 C10.96319092 42.44932861 9.92638184 41.89865723 8.8581543 41.33129883 C0.80580927 36.39434442 0.80580927 36.39434442 -0.62960815 32.12921143 C-1.49401378 26.90883974 -1.09600493 21.69013773 -0.75 16.4375 C-0.68971268 14.84069638 -0.63497614 13.24367302 -0.5859375 11.64648438 C-0.45458323 7.75883576 -0.24820536 3.88186824 0 0 Z " transform="translate(119,200)" style="fill: #FDFEFD;"/><path d="M0 0 C1.98 0 3.96 0 6 0 C7.25497669 27.98133203 -4.8033892 56.07913652 -23 77 C-23.74378906 77.86496094 -24.48757813 78.72992188 -25.25390625 79.62109375 C-29.54153754 84.50362482 -33.85963171 89.01359194 -39 93 C-39.66 93 -40.32 93 -41 93 C-41 93.66 -41 94.32 -41 95 C-43.16015625 96.5859375 -43.16015625 96.5859375 -46.0625 98.375 C-47.56296875 99.30119141 -47.56296875 99.30119141 -49.09375 100.24609375 C-50.0528125 100.82488281 -51.011875 101.40367187 -52 102 C-52.7321875 102.44472656 -53.464375 102.88945312 -54.21875 103.34765625 C-58.70586918 106 -58.70586918 106 -61 106 C-61.44833234 100.07856434 -61.7728312 94.16713135 -61.98876953 88.23266602 C-62.07878707 86.22049988 -62.2012829 84.2094956 -62.35791016 82.20141602 C-63.37474246 68.81977004 -63.37474246 68.81977004 -61 63 C-56.72897129 58.14760931 -50.9346051 55.5708311 -45.11433411 53.00662231 C-40.51505751 50.81693317 -36.79771297 47.33718188 -33 44 C-32.17371094 43.29359375 -31.34742188 42.5871875 -30.49609375 41.859375 C-18.31919785 31.2255056 -3.72644385 16.37485421 0 0 Z " transform="translate(307,142)" style="fill: #FCFDFD;"/><path d="M0 0 C2.97 0 5.94 0 9 0 C9 17.16 9 34.32 9 52 C1.08 52.495 1.08 52.495 -7 53 C-8.65 53.33 -10.3 53.66 -12 54 C-14.13028006 54.0793925 -16.26279622 54.10775926 -18.39453125 54.09765625 C-19.59658203 54.09443359 -20.79863281 54.09121094 -22.03710938 54.08789062 C-23.28298828 54.07951172 -24.52886719 54.07113281 -25.8125 54.0625 C-27.07771484 54.05798828 -28.34292969 54.05347656 -29.64648438 54.04882812 C-32.7643711 54.03706251 -35.88216133 54.02062272 -39 54 C-39 56.64 -39 59.28 -39 62 C-40.02738281 62.49628906 -41.05476563 62.99257812 -42.11328125 63.50390625 C-49.60127825 67.16096139 -56.82088983 70.91767489 -63.765625 75.5546875 C-66 77 -66 77 -70 79 C-70 75.37 -70 71.74 -70 68 C-79.57 68 -89.14 68 -99 68 C-97.47323553 63.41970659 -96.33464049 60.58325476 -93.8125 56.6875 C-92.98685547 55.39392578 -92.98685547 55.39392578 -92.14453125 54.07421875 C-91.43683594 53.05972656 -90.72914062 52.04523438 -90 51 C-89.64414825 50.26143768 -89.28829651 49.52287537 -88.92166138 48.76193237 C-87.21806912 45.79636683 -85.76562225 44.04533248 -83 42 C-76.72295198 40.70434488 -70.54161988 40.95114354 -64.16015625 41.12109375 C-62.30931195 41.13789404 -60.45842743 41.15069851 -58.60752869 41.15968323 C-53.75178199 41.19393695 -48.89848453 41.2822427 -44.04370117 41.38201904 C-38.21043261 41.49057774 -32.37634181 41.53165054 -26.54235077 41.58409882 C-17.69320067 41.67117902 -8.8494168 41.84366352 0 42 C0 28.14 0 14.28 0 0 Z " transform="translate(187,16)" style="fill: #FBFDFC;"/><path d="M0 0 C13.17071802 1.88153115 24.86633958 7.89402035 36 15 C36.8772876 15.46615723 37.7545752 15.93231445 38.65844727 16.41259766 C42.4112304 20.5594015 41.6179807 24.93515869 41.48828125 30.328125 C41.48120651 31.43226746 41.47413177 32.53640991 41.46684265 33.67401123 C41.43885763 37.20003045 41.37610756 40.72446087 41.3125 44.25 C41.28742262 46.64060207 41.26460848 49.03122902 41.24414062 51.421875 C41.18901746 57.28179194 41.10534896 63.14078247 41 69 C36.17236328 68.19042969 36.17236328 68.19042969 34.62109375 66.4765625 C34.23050781 65.86554688 33.83992188 65.25453125 33.4375 64.625 C30.02201553 60.32725483 26.46010561 59.7925398 21.234375 58.74609375 C16.84266009 57.73302908 12.90021628 56.0013353 8.7890625 54.18359375 C5.92069735 52.96634635 2.95605969 51.98535323 0 51 C0 34.17 0 17.34 0 0 Z " transform="translate(224,21)" style="fill: #FCFEFD;"/><path d="M0 0 C6.44609624 4.16768162 6.44609624 4.16768162 8.96484375 6.8828125 C9.45106201 7.40464111 9.93728027 7.92646973 10.43823242 8.46411133 C10.93299072 9.01220459 11.42774902 9.56029785 11.9375 10.125 C12.46255127 10.70338623 12.98760254 11.28177246 13.52856445 11.87768555 C28.45184035 28.55718326 44.22563503 54.75832835 43 78 C30.02109237 80.07530757 30.02109237 80.07530757 25.2578125 76.80322266 C21.89424236 73.51809398 19.23117878 69.67951585 16.47509766 65.88623047 C14.0960957 62.84416342 11.31778916 60.30894543 8.4375 57.75 C7.46683594 56.87859375 6.49617188 56.0071875 5.49609375 55.109375 C2.99420949 52.91425533 2.99420949 52.91425533 0 51 C-0.36076355 48.82333374 -0.36076355 48.82333374 -0.34057617 46.09130859 C-0.34034958 45.07040131 -0.34012299 44.04949402 -0.33988953 42.99765015 C-0.32440567 41.89240997 -0.30892181 40.7871698 -0.29296875 39.6484375 C-0.28872391 38.5192691 -0.28447906 37.39010071 -0.28010559 36.22671509 C-0.26327132 32.60923727 -0.22560975 28.99231031 -0.1875 25.375 C-0.17245934 22.92709136 -0.15876986 20.47917402 -0.14648438 18.03125 C-0.11335227 12.0206444 -0.06310579 6.01036154 0 0 Z " transform="translate(269,44)" style="fill: #FCFEFD;"/><path d="M0 0 C0 12.21 0 24.42 0 37 C-24.09 37 -48.18 37 -73 37 C-70.94299425 32.88598849 -68.69481412 30.67298468 -65.25 27.8125 C-64.67580322 27.33272705 -64.10160645 26.8529541 -63.51000977 26.35864258 C-50.20590217 15.46855045 -35.58290803 7.61379296 -19 3 C-17.741875 2.608125 -16.48375 2.21625 -15.1875 1.8125 C-10.12987138 0.52330055 -5.23243531 0 0 0 Z " transform="translate(182,17)" style="fill: #FDFEFD;"/><path d="M0 0 C1.01853085 8.9673061 1.0374617 17.75979202 0.78515625 26.77148438 C0.62728409 38.41814423 3.73131016 50.4591306 11.8125 59.25 C14 62 14 62 14 68 C4.1 68 -5.8 68 -16 68 C-16.66 66.35 -17.32 64.7 -18 63 C-20.21081268 60.23183959 -21.0814191 59.97654026 -24.6875 58.9375 C-30.48515511 56.95833759 -33.77983927 51.99296199 -37 47 C-37 46.34 -37 45.68 -37 45 C-31.72 45 -26.44 45 -21 45 C-21.11601563 42.93878906 -21.23203125 40.87757813 -21.3515625 38.75390625 C-21.4211677 36.72839483 -21.49039115 34.70285219 -21.54931641 32.67700195 C-21.59922342 31.28266449 -21.66718831 29.88884022 -21.75439453 28.49633789 C-22.45651752 16.98565098 -22.45651752 16.98565098 -18.90527344 12.14428711 C-16.37427799 9.84173865 -13.84457127 7.89672977 -11 6 C-10.11135254 5.36457275 -9.22270508 4.72914551 -8.30712891 4.07446289 C-2.56459732 0 -2.56459732 0 0 0 Z " transform="translate(138,102)" style="fill: #FAFDFB;"/><path d="M0 0 C2.7265625 -0.3984375 2.7265625 -0.3984375 6 0 C7.80689836 2.15461764 9.03632643 3.95446976 10.375 6.375 C11.14360626 7.67214571 11.91709987 8.9664072 12.6953125 10.2578125 C13.07848633 10.89750977 13.46166016 11.53720703 13.85644531 12.19628906 C15.45712067 14.72100929 17.32027209 16.97073646 19.25 19.25 C21.99213664 22.5157336 23.80726582 25.52728404 25.5 29.4375 C27.38680268 33.48951793 27.38680268 33.48951793 31.5 35.5 C32.1703125 35.67273438 32.840625 35.84546875 33.53125 36.0234375 C37.14451243 37.45273435 39.95597596 39.74200181 43 42.125 C43.58845703 42.58197266 44.17691406 43.03894531 44.78320312 43.50976562 C46.21341135 44.64278773 47.61016929 45.81779644 49 47 C49 47.33 49 47.66 49 48 C45.7 48 42.4 48 39 48 C39 58.89 39 69.78 39 81 C38.01 80.67 37.02 80.34 36 80 C36 79.34 36 78.68 36 78 C35.34 78 34.68 78 34 78 C22.8191302 67.77204524 15.24171062 53.5749074 9 40 C8.51660156 38.99453125 8.03320312 37.9890625 7.53515625 36.953125 C2.35178168 25.54654996 -0.80971079 12.55051717 0 0 Z " transform="translate(76,148)" style="fill: #FBFDFC;"/><path d="M0 0 C3.98236024 -0.27420913 7.96100594 -0.47247272 11.95068359 -0.60424805 C13.96517969 -0.68608545 15.97704917 -0.82595153 17.98828125 -0.96679688 C27.63618806 -1.23344757 27.63618806 -1.23344757 31.72265625 2.46240234 C37 9.65359761 37 9.65359761 37 12 C29.08 12 21.16 12 13 12 C13.16242188 14.55492187 13.32484375 17.10984375 13.4921875 19.7421875 C13.60171207 22.24747444 13.68650565 24.75248456 13.76904297 27.25878906 C13.83900589 28.98626074 13.93423531 30.71291616 14.05615234 32.4375 C15.015276 46.36494274 15.015276 46.36494274 11.62902832 50.79260254 C7.13469044 55.01428284 1.84282466 58.05239178 -4 60 C-4 55.38 -4 50.76 -4 46 C-9.61 46 -15.22 46 -21 46 C-20.071875 44.9275 -19.14375 43.855 -18.1875 42.75 C-16.44361555 40.72709404 -14.80913318 38.73414979 -13.25 36.5625 C-12.8375 36.046875 -12.425 35.53125 -12 35 C-11.34 35 -10.68 35 -10 35 C-9.88527344 34.45214844 -9.77054688 33.90429688 -9.65234375 33.33984375 C-8.88536472 30.58882316 -7.77163707 28.14940751 -6.5625 25.5625 C-5.70032605 23.71204308 -4.84595086 21.85792946 -4 20 C-3.64035156 19.22140625 -3.28070313 18.4428125 -2.91015625 17.640625 C-1.72843083 14.21209976 -1.2933424 10.77084268 -0.875 7.1875 C-0.78863281 6.49462891 -0.70226562 5.80175781 -0.61328125 5.08789062 C-0.40283919 3.39266294 -0.20058328 1.69642245 0 0 Z " transform="translate(250,126)" style="fill: #FCFDFC;"/><path d="M0 0 C2.87507187 1.34510014 5.27546935 2.91598202 7.8125 4.8125 C22.52450622 14.58050413 38.12083432 14.14338612 55 12 C55 16.62 55 21.24 55 26 C48.17232904 26.17492062 41.34600264 26.3009449 34.51660156 26.38452148 C32.20061482 26.41941243 29.88477862 26.466944 27.56933594 26.52807617 C13.09610793 26.90022702 1.62342625 26.4670644 -11 19 C-11.85029785 18.51120361 -12.7005957 18.02240723 -13.57666016 17.51879883 C-15.55352487 16.31200486 -17.43435665 15.04121286 -19.3125 13.6875 C-19.93060547 13.25888672 -20.54871094 12.83027344 -21.18554688 12.38867188 C-22.79744875 11.26924706 -24.39942307 10.13555847 -26 9 C-26.99 8.34 -27.98 7.68 -29 7 C-29 6.34 -29 5.68 -29 5 C-19.43 5 -9.86 5 0 5 C0 3.35 0 1.7 0 0 Z " transform="translate(156,170)" style="fill: #F9FCFB;"/><path d="M0 0 C9.24 0 18.48 0 28 0 C28 11 28 11 24.66796875 15.23046875 C23.19689172 16.57443006 21.7019919 17.89265873 20.1875 19.1875 C14.27859744 24.63471176 9.09320702 29.98871639 4.625 36.6875 C4.1921167 37.33420654 3.7592334 37.98091309 3.31323242 38.6472168 C-0.03609605 43.80111999 -3.09271316 48.83044946 -4 55 C-5.98 55 -7.96 55 -10 55 C-11.17812053 35.47374305 -7.24667038 18.11667594 0 0 Z " transform="translate(85,88)" style="fill: #FAFDFB;"/><path d="M0 0 C13 0 13 0 20 2 C20 18.83 20 35.66 20 53 C11 53 11 53 0 52 C0 34.84 0 17.68 0 0 Z " transform="translate(200,17)" style="fill: #FAFDFC;"/><path d="M0 0 C0.87978516 0.01289063 1.75957031 0.02578125 2.66601562 0.0390625 C4.00889648 0.08933594 4.00889648 0.08933594 5.37890625 0.140625 C6.30123047 0.15867188 7.22355469 0.17671875 8.17382812 0.1953125 C10.43014222 0.24207549 12.68591541 0.31380601 14.94140625 0.390625 C14.94140625 4.680625 14.94140625 8.970625 14.94140625 13.390625 C-5.53432191 22.390625 -5.53432191 22.390625 -12.05859375 22.390625 C-12.05859375 16.450625 -12.05859375 10.510625 -12.05859375 4.390625 C-4.18359375 -0.109375 -4.18359375 -0.109375 0 0 Z " transform="translate(227.05859375,175.609375)" style="fill: #FBFDFC;"/><path d="M0 0 C4.04053559 0.18366071 5.71563018 0.75354616 8.8125 3.4375 C12.22829819 7.43886359 12.3564117 9.74292739 12 15 C10.19279876 19.08998175 7.80930249 21.66247347 4 24 C0.19230134 24.47596233 -2.17329346 24.36528894 -5.6875 22.8125 C-9.82496898 19.56961891 -12.0808087 16.94808714 -12.75 11.6875 C-12.8325 10.470625 -12.915 9.25375 -13 8 C-12.14535156 7.50628906 -11.29070312 7.01257813 -10.41015625 6.50390625 C-9.30542969 5.86324219 -8.20070313 5.22257813 -7.0625 4.5625 C-5.96035156 3.92441406 -4.85820312 3.28632813 -3.72265625 2.62890625 C-1.1716429 1.25289773 -1.1716429 1.25289773 0 0 Z " transform="translate(265,193)" style="fill: #8BD2AB;"/><path d="M0 0 C7.59 0 15.18 0 23 0 C21.24895929 4.37760178 19.34601235 7.54593374 16.5 11.1875 C16.06437744 11.74977295 15.62875488 12.3120459 15.17993164 12.89135742 C10.87662468 18.33810351 6.17809301 23.36586827 1 28 C0.67 28 0.34 28 0 28 C0 18.76 0 9.52 0 0 Z " transform="translate(267,142)" style="fill: #F9FCFA;"/><path d="M0 0 C6.93757417 4.73912017 13.41137375 10.72280375 19 17 C19 17.33 19 17.66 19 18 C11.08 18 3.16 18 -5 18 C-6.32 12.06 -7.64 6.12 -9 0 C-5.05900415 -0.98524896 -3.73286381 -1.18028523 0 0 Z " transform="translate(255,104)" style="fill: #F8FCF9;"/><path d="M0 0 C0.495 9.405 0.495 9.405 1 19 C-15.77776413 21.37561262 -35.25196834 23.87401583 -51 16 C-35.49 16 -19.98 16 -4 16 C-4 11.38 -4 6.76 -4 2 C-4.66 1.67 -5.32 1.34 -6 1 C-3.92446352 0.4465236 -2.15634036 0 0 0 Z " transform="translate(215,180)" style="fill: #83CDA5;"/><path d="M0 0 C4.28282783 0.25193105 6.52200982 0.62370986 9.9375 3.3125 C12 6 12 6 12 10 C21.9 10 31.8 10 42 10 C42 8.35 42 6.7 42 5 C44.5625 7.1875 44.5625 7.1875 47 10 C46.65234375 12.67578125 46.65234375 12.67578125 46 15 C17.9994361 17.90939193 17.9994361 17.90939193 11.4765625 13.79296875 C8.45004614 11.25169623 6.19674277 8.28198621 4 5 C2.67390376 3.32756934 1.34294481 1.65893182 0 0 Z " transform="translate(110,160)" style="fill: #8DD2AC;"/><path d="M0 0 C8.25 0 16.5 0 25 0 C25.66 1.32 26.32 2.64 27 4 C19.41 4 11.82 4 4 4 C4.04640625 6.05863281 4.0928125 8.11726562 4.140625 10.23828125 C4.16843918 12.23394846 4.19611135 14.22962049 4.21972656 16.2253418 C4.23983275 17.61153338 4.26712245 18.99764025 4.30175781 20.38354492 C4.35031225 22.37641906 4.37083972 24.36991389 4.390625 26.36328125 C4.41157227 27.56251221 4.43251953 28.76174316 4.45410156 29.99731445 C4 33 4 33 0 36 C0 24.12 0 12.24 0 0 Z " transform="translate(263,138)" style="fill: #84CFA6;"/><path d="M0 0 C3.5625 0.625 3.5625 0.625 6.5625 2.6875 C8.5625 5.625 8.5625 5.625 8.6875 9.1875 C7.35422189 13.26140532 6.33380118 14.61363937 2.5625 16.625 C-1.43331592 16.70654726 -2.90438828 16.13005321 -5.8125 13.375 C-7.61649566 10.32208427 -8.12967302 9.0858651 -7.4375 5.625 C-5.33205417 1.83519751 -4.31304512 0.78419002 0 0 Z " transform="translate(264.4375,196.375)" style="fill: #F8FCF9;"/><path d="M0 0 C0.66 0 1.32 0 2 0 C2 6.6 2 13.2 2 20 C-3.28 20 -8.56 20 -14 20 C-9.93307084 12.88287398 -5.65552664 5.98670613 0 0 Z " transform="translate(111,123)" style="fill: #F8FCFA;"/><path d="M0 0 C0 9.57 0 19.14 0 29 C-8.415 29.495 -8.415 29.495 -17 30 C-17.66 28.35 -18.32 26.7 -19 25 C-14.05 25 -9.1 25 -4 25 C-4.11859375 23.53046875 -4.2371875 22.0609375 -4.359375 20.546875 C-4.4906907 18.61465827 -4.6208382 16.6823619 -4.75 14.75 C-4.83121094 13.78191406 -4.91242188 12.81382812 -4.99609375 11.81640625 C-5.44302125 4.6159076 -5.44302125 4.6159076 -3.078125 1.328125 C-1 0 -1 0 0 0 Z " transform="translate(117,118)" style="fill: #85CFA7;"/><path d="M0 0 C1.09187622 0.10211792 1.09187622 0.10211792 2.20581055 0.20629883 C3.39980469 0.29814453 3.39980469 0.29814453 4.61791992 0.3918457 C5.84285156 0.52623047 5.84285156 0.52623047 7.0925293 0.66333008 C7.92848633 0.73358398 8.76444336 0.80383789 9.62573242 0.8762207 C11.67934822 1.05224491 13.73012697 1.26083513 15.7800293 1.47583008 C15.7800293 6.42583008 15.7800293 11.37583008 15.7800293 16.47583008 C14.4600293 16.80583008 13.1400293 17.13583008 11.7800293 17.47583008 C11.7800293 13.51583008 11.7800293 9.55583008 11.7800293 5.47583008 C5.5100293 5.47583008 -0.7599707 5.47583008 -7.2199707 5.47583008 C-2.2199707 0.47583008 -2.2199707 0.47583008 0 0 Z " transform="translate(230.219970703125,170.524169921875)" style="fill: #87D1A9;"/><path d="M0 0 C4.29 0 8.58 0 13 0 C13 3.96 13 7.92 13 12 C9.875 12.625 9.875 12.625 6 12 C3.25048211 8.70773563 0 4.42493518 0 0 Z " transform="translate(300,126)" style="fill: #F9FCFB;"/><path d="M0 0 C4.10393012 -0.11591764 8.20744106 -0.18715601 12.3125 -0.25 C13.47974609 -0.28351563 14.64699219 -0.31703125 15.84960938 -0.3515625 C17.52700195 -0.37089844 17.52700195 -0.37089844 19.23828125 -0.390625 C20.26993408 -0.41157227 21.30158691 -0.43251953 22.36450195 -0.45410156 C25 0 25 0 28 4 C18.76 4 9.52 4 0 4 C0 2.68 0 1.36 0 0 Z " transform="translate(250,122)" style="fill: #8CD2AC;"/><path d="M0 0 C6.93 0 13.86 0 21 0 C17.19395078 1.90302461 13.40010874 3.29871896 9.375 4.625 C8.694375 4.85445313 8.01375 5.08390625 7.3125 5.3203125 C2.25344122 7 2.25344122 7 0 7 C0 4.69 0 2.38 0 0 Z " transform="translate(148,70)" style="fill: #88D0A9;"/><path d="M0 0 C-0.30744141 0.88751953 -0.30744141 0.88751953 -0.62109375 1.79296875 C-1.9997571 5.83660816 -3.31750847 9.76855249 -4 14 C-6.39763185 11.60236815 -6.34280586 10.66726502 -6.625 7.375 C-6.69976562 6.55773437 -6.77453125 5.74046875 -6.8515625 4.8984375 C-6.90054688 4.27195312 -6.94953125 3.64546875 -7 3 C-2.25 0 -2.25 0 0 0 Z " transform="translate(144,98)" style="fill: #86CEA7;"/><path d="M0 0 C0.70125 0.721875 1.4025 1.44375 2.125 2.1875 C4.92770745 4.99823813 7.92262792 7.49516226 11 10 C9 11 9 11 6.625 10.5 C2.83846103 8.33626345 1.88523276 5.91011239 0 2 C0 1.34 0 0.68 0 0 Z " transform="translate(99,173)" style="fill: #86CEA7;"/><path d="M0 0 C2.97 1.65 5.94 3.3 9 5 C7 7 7 7 4.375 7.125 C3.59125 7.08375 2.8075 7.0425 2 7 C1.34 4.69 0.68 2.38 0 0 Z " transform="translate(243,97)" style="fill: #86CEA7;"/><path d="M0 0 C7.38461538 0.49230769 7.38461538 0.49230769 10.5 3.0625 C10.995 3.701875 11.49 4.34125 12 5 C11.67 5.66 11.34 6.32 11 7 C7.37 5.02 3.74 3.04 0 1 C0 0.67 0 0.34 0 0 Z " transform="translate(246,80)" style="fill: #80CCA2;"/></svg>